<svg id="Слой_1" data-name="Слой 1" xmlns="http://www.w3.org/2000/svg" viewBox="0 0 4818 1686"><defs><style>.cls-1{fill:#19456b;}.cls-2{fill:#cc0001;}</style></defs><title>Монтажная область 1</title><path class="cls-1" d="M3110.3,1.9c-12.9,7.9-19.3,32.4-60.8,231.6-20.5,98.4-37.3,176.1-50.4,232.5-29.6,127.8-60.1,246.5-79.2,308.5-21.8,70.4-38.9,115.8-57,151.5-20,39.4-35.4,56-51.9,56h-5.7l-13.4-13.8c-23.2-23.7-41-47.4-62.8-84.1-41.4-69.4-73.5-136.2-129.1-269.6-47.9-114.7-66.8-157.8-92.9-211-26.9-54.9-46.6-85.4-68.3-106.1-9-8.6-14.5-12.4-24.1-16.9-23.4-11-43.3-4.3-64.6,22-12.3,15.1-11,11.6-30.1,81-3.9,14.3-16.3,57.5-27.5,96-20,68.6-34.1,118.4-56.5,199.5-6.2,22.3-16.4,57.8-22.7,79s-13.2,44.8-15.3,52.5c-8.2,29.6-15.9,52.4-36.7,108.8-51.2,139.2-79.7,236.2-87.2,297.3-3.1,25-3.6,41.2-1.7,52.4,2.6,14.8,4.6,21.2,6.5,20.7.9-.2,12-2.3,24.8-4.7l23.2-4.3,5.1-14.1c33.9-91.9,41.7-116.2,83-257.1,30-102.2,62.8-209.3,90.6-295,33.5-103.7,68.1-194.4,92.5-242.5,18.5-36.5,32-54,41.6-54,3.4,0,3.5.1,9,11.7,21.7,45.9,42.1,91.8,63,141.8,38.1,90.8,56.1,131.1,82.8,184,47.9,95.1,95.9,169.2,157.1,242.5,26.5,31.9,57.1,52.4,84.8,57.1,18.5,3.1,39.5-3.7,56-18.1,12.7-11.2,30-33.4,43.1-55.5,5-8.4,7.5-16.2,32-98.5,77.7-261.4,122.3-442.7,162.4-661,13.7-74.4,28.1-159.2,28.1-165.6,0-10.9-6.5-28.5-14.5-39.4C3132.9,2.6,3119.4-3.6,3110.3,1.9Z"/><path class="cls-1" d="M4810.5,70.7c-21.8,2-45.7,10.8-67,24.7-33.1,21.6-75.9,66.2-110,114.7-33.1,47-56.4,86.9-89.8,153.9-45.6,91.2-70.5,148.4-132.3,304-17.1,43.1-19.2,47.9-23.2,52.2-2.3,2.5-5.4,4.9-6.7,5.2-10.8,2.7-20.2-18.9-28.9-66.9-1.9-10.5-7.6-48-12.6-83.5-11.8-83.3-15.2-102.9-23.4-135.5-9.3-36.9-21.4-60.9-34-67.4-12.3-6.3-26-.9-40.2,15.8-14.5,17.2-30.7,45.5-103.4,181.6-40,74.8-62.8,112.1-101.5,165.5-18.1,25.1-24.8,34-25.5,34s-10.2-49.9-9.6-50.8c.2-.4,2.8-14.5,5.6-31.2,6.7-40.3,11.8-68.5,25.2-140,10.9-58.2,11.2-59.8,11.1-73.5,0-11.1-.4-15.6-2.1-21.8-10-36.8-32.2-61.2-51.6-56.8-10.5,2.3-17.6,10.8-22.6,26.9-7.8,25.3-26.6,139.9-43,262.7-15.4,116.1-21.5,166-21.4,176,.2,11.2,2.2,18.4,7.5,26.6,4,6.3,16.2,17.7,22.4,21.1,22.5,12.1,55.6,12.3,79.4.5,6.4-3.2,6.5-3.3,18.9-21.7,20.4-30.5,37.3-59.1,86.1-145.7,44.5-79,71.7-119.9,104.2-157,8.9-10,10.3-11.2,14.3-12.1,9-1.9,8.9-2,13.1,15.6,17,72.4,28.4,109,44.9,145.2,10.5,23,25.8,48.2,39.5,65.2,16,19.8,39.5,36.8,62.7,45.1,13.5,4.9,22,4.7,29.8-.4,8.2-5.5,14-15.5,31.1-53.9,4.6-10.2,12-26.6,16.5-36.5s18-40.3,30-67.5,28-63.2,35.5-80c16.7-37.2,24.6-55.2,38.1-86.9,12.9-30,21.6-47.2,38.2-75.6,104.1-177.7,128.7-220,149.4-257,36.6-65.1,53.5-100.8,52.6-111.3C4817.5,70.2,4817.1,70.1,4810.5,70.7Z"/><path class="cls-1" d="M903,326.5c-93.5,7.7-182.3,35.2-283.5,87.8C535.8,457.9,477.7,500.1,420.8,559c-20.4,21.1-30.6,30.6-60.7,56.4-25.1,21.4-33.8,27.1-52.6,34.6-21.5,8.6-26.8,13.6-26.7,25.6q.15,18.6,21.6,39.9c15.8,15.7,32.3,23.4,51.6,24.3,13,.5,19.8-1,32.8-7.4,14.1-6.9,24.4-17.3,44-44.4,37.2-51.4,52.4-70.3,73.7-91.6,26.6-26.7,65.3-56.2,103.8-79.2,126.6-75.5,284.8-109.1,407.7-86.6,60.2,11.1,104.2,32.1,136,65,14,14.4,19.8,23.9,25.8,41.9,7.5,22.7,13.2,66.3,11.8,90.8-3.5,62.7-39.2,146.2-105.1,246.2-90.6,137.3-213.3,261.3-361.5,365.2-67.1,47-125.4,83.1-277.3,171.5-92.4,53.8-106,62-142.7,86.3-37.3,24.8-83.5,57.9-97.2,69.7-11.2,9.6-20.7,25.2-23,37.6-2.3,12.2,2.6,26.7,14.2,42,28.8,38.3,85.2,47.9,164.3,28,119.6-29.9,279-127.7,435.7-267.2,58.1-51.8,132.3-125.9,188.6-188.6,45.6-50.8,63.7-73.3,97.9-122,42.9-61.2,115.4-174,138.9-216.5,21.6-39,47.9-92.7,64.6-132,14.5-34.2,24.7-65.7,29-89.7,8.1-44.7,3.4-101-12.5-149.3-14.1-43.2-44.4-80-91.2-110.8-15.5-10.3-25.3-15.5-44.3-24-58.5-26-112.8-40.8-173.5-47.2C973.5,325.3,924,324.7,903,326.5Z"/><path class="cls-1" d="M3607.7,399c-30.8,3.3-77.8,15-95.7,24-46.9,23.6-110.5,100.1-160.4,192.8-32.2,59.7-58.8,128.8-69.5,180.2-12.3,58.9-12,103.8,1,143.4,9.3,28.3,21.5,46.7,40.7,61.1,25.7,19.2,63,29.5,107.4,29.5,36.5,0,64.1-6.7,101.5-24.5,83.4-39.8,154.4-117.8,203.1-223,34.7-75,52.2-155.2,48.3-221.5-2.6-45.8-13.9-80.7-35.2-109-19.5-25.9-52.5-44.9-89.9-51.6C3648.8,398.5,3619.9,397.8,3607.7,399Zm58.5,62.1c31.2,3.4,52.5,16.2,63.2,38.1,6.3,12.7,8.6,22.4,9.3,38.5,2.1,49.8-19.9,118.5-62.7,195.8-49.8,89.8-116.3,170.6-179.4,217.9-33.8,25.3-66.7,38.4-91,36.2-23.9-2.2-38.5-13.1-51.6-38.7-11.4-22.2-16.4-44-16.4-70.9,0-18.7,1.5-31.4,6-52,10.8-48.7,39.1-108.4,81.8-172.8,19.2-29,45.9-64.7,100.5-134.5l29.5-37.8,14.1-4.5c25-8.1,50.9-13.8,70-15.4C3653.1,459.9,3655.1,459.9,3666.2,461.1Z"/><path class="cls-2" d="M597,588.1c-26.6,7.1-52.1,23.8-75.3,49.4-26.2,29-49.9,65-72.6,110.5-28.6,57.4-51.5,117.9-76.7,202.5-5.3,17.6-9.8,33-10.2,34.1-1,3.2-226.6,171.9-309.2,231.2C19.4,1240,14.1,1244,7.7,1249.9c-4.5,4.2-7.7,8.7-7.7,10.9,0,1.4,19.6,8.9,29.1,11.1,37,8.7,79.1,3.5,139.9-17.4,25-8.6,50.1-19.7,94.1-41.6,21.9-10.9,39.9-19.7,39.9-19.5,0,1.7-12.3,37.8-27.5,81.1-19.6,55.6-25.7,74.3-31,95.3-9.6,37.7-8.5,60.4,3.4,67,14.5,8.2,45.7-5.3,92.7-39.9,11.9-8.7,36.6-29.4,47.3-39.5,7.2-6.8,9-9.1,12.3-16.4,18.5-40.3,40.8-110.2,65.8-207,4.5-17.3,8.6-33.1,9.1-35,.9-3.1,2.4-4.4,14.1-11.5,20.5-12.5,64.2-41.7,87.8-58.6,25-17.9,50.1-37.3,86.5-66.9,62.8-51,83.1-72.3,98.5-103.5,11.8-23.8,15.6-42.4,14.7-70.5-.6-17.2-3.8-39.8-6.2-43.6-4.4-6.8-19.4-7.2-38-.9-21.1,7.1-60.1,27.5-99.9,52.3-17.3,10.8-76.4,50-91,60.5-4.4,3.1-8.1,5.5-8.3,5.4-.2-.3,16.4-68.8,24.7-101.7,6.2-24.9,12.6-46.8,18.2-62.5,25-70.2,34.1-104.1,29.6-109.7C604.6,586.3,604,586.3,597,588.1Z"/><path class="cls-1" d="M1877.5,587.7c-10.3,1.6-28,6.2-41.8,11-43.1,14.8-123.2,53.6-156.5,75.8-15.4,10.2-38.5,33.1-62.3,61.5-34.4,41.3-70.8,99.6-102.1,163.6C1503,923.7,1502,925,1494,925.8c-7.7.7-15.1-4.3-39.5-26.2-16.6-15.1-24.7-20.6-29.9-20.6-7.3,0-11.8,4.6-18.1,18.4-12.9,27.9-21.9,95.6-25.6,192.1-1.6,39.9-.6,174.9,1.5,216,2.8,53,5.3,84.5,7.7,93.5.9,3.6.9,3.6,15.1,8.4,7.9,2.6,16.1,5,18.3,5.3,3.6.4,4.4.1,7.2-2.7,9.2-9.4,18.6-34.5,44.4-118.5,43.9-142.6,67.7-210.5,100.1-286,52.9-123.1,105.1-206.8,168.1-269.7,50.5-50.3,98.8-79.5,156.1-94.4,7.1-1.8,13.3-3.7,13.7-4.1,1.7-1.7,6.1-17.2,6.6-23.4.8-9.2-.2-13.4-4.3-17.8-5.4-6.1-11.9-8.4-24.4-8.7A117.5,117.5,0,0,0,1877.5,587.7Z"/><path class="cls-1" d="M4671.5,967.7c-1.6.2-10.2,1-19,1.9-125.9,12.1-501.7,75.8-988,167.5-158,29.8-1875.7,354.9-1928.5,365-369,70.6-633.8,132.3-634,147.7,0,2.8,5.4,3.4,27,2.9,74.3-2,298.5-36.9,613.5-95.6,61.2-11.4,759.2-143.4,1756.5-332.2,414.1-78.4,629.8-120.8,831.5-163.4,255-53.9,386.9-87.4,369.9-93.9C4698.8,967,4676.8,967,4671.5,967.7Z"/></svg>